<svg xmlns="http://www.w3.org/2000/svg" version="1.1" xmlns:xlink="http://www.w3.org/1999/xlink" width="512" height="512" x="0" y="0" viewBox="0 0 2048 2048" style="enable-background:new 0 0 512 512" xml:space="preserve" class=""><g><path d="M1035.019 1956h-22.037a171.167 171.167 0 0 1-60.171-10.887c-212.381-79.458-383.035-208.231-507.225-382.744-97.524-137.042-165.165-300.865-201.041-486.916-59.175-306.879-11.257-572.891-9.188-584.064 10.595-57.209 48.97-104.754 102.654-127.182l619.793-258.935C978.883 96.465 1001.155 92 1024 92c22.846 0 45.117 4.465 66.196 13.271l619.793 258.935c53.685 22.43 92.06 69.974 102.653 127.181 2.069 11.177 49.981 277.218-9.188 584.064-35.877 186.052-103.517 349.874-201.041 486.917-124.189 174.514-294.844 303.287-507.224 382.743a171.114 171.114 0 0 1-60.17 10.889zM1024 156a107.175 107.175 0 0 0-41.525 8.325L362.682 423.26c-33.676 14.069-57.749 43.894-64.395 79.781-1.979 10.687-47.811 265.156 9.1 560.293 34.129 176.989 98.17 332.403 190.343 461.927 116.649 163.917 277.305 285.008 477.505 359.909a107.388 107.388 0 0 0 37.746 6.829h22.037c12.932 0 25.632-2.298 37.747-6.83 200.199-74.899 360.854-195.99 477.504-359.908 92.174-129.523 156.214-284.938 190.344-461.928 56.905-295.106 11.077-549.606 9.099-560.295-6.645-35.884-30.718-65.709-64.395-79.779l-619.792-258.935A107.189 107.189 0 0 0 1024 156z" fill="#0261df" opacity="1" data-original="#000000" class=""></path><path d="M1035.019 1816.278h-22.037c-3.829 0-7.627-.688-11.213-2.029-185.79-69.508-334.615-181.509-442.344-332.891-85.842-120.628-145.625-266.095-177.686-432.361-28.345-146.994-29.329-283.518-25.164-372.163 4.527-96.322 15.694-157.45 16.167-160.004a31.998 31.998 0 0 1 19.129-23.7l619.792-258.935a31.996 31.996 0 0 1 24.671 0l619.792 258.935a32 32 0 0 1 19.129 23.7c.474 2.555 11.64 63.683 16.167 160.004 4.166 88.645 3.182 225.168-25.163 372.163-32.061 166.267-91.843 311.733-177.686 432.361-107.729 151.382-256.554 263.383-442.344 332.891a31.963 31.963 0 0 1-11.21 2.029zm-16.204-64h10.369c312.42-118.785 505.595-359.444 574.234-715.399 44.014-228.25 20.178-432.847 11.584-491.569L1024 298.402 432.987 545.313c-3.535 24.037-9.641 72.461-12.571 136.462-3.901 85.201-2.812 216.295 24.529 356.979 68.978 354.934 262.024 594.96 573.87 713.524z" fill="#0261df" opacity="1" data-original="#000000" class=""></path><path d="M1178.23 1420.12H869.77c-82.837 0-150.23-67.397-150.23-150.24v-250.66c0-82.843 67.393-150.24 150.23-150.24h308.46c82.837 0 150.229 67.397 150.229 150.24v250.66c.001 82.843-67.392 150.24-150.229 150.24zM869.77 932.98c-47.547 0-86.23 38.687-86.23 86.24v250.66c0 47.553 38.683 86.24 86.23 86.24h308.46c47.547 0 86.229-38.688 86.229-86.24v-250.66c0-47.553-38.683-86.24-86.229-86.24zM1024 1182.79c-48.887 0-88.66-39.772-88.66-88.66 0-48.893 39.773-88.67 88.66-88.67 48.888 0 88.66 39.777 88.66 88.67 0 48.888-39.772 88.66-88.66 88.66zm0-113.33c-13.598 0-24.66 11.066-24.66 24.67 0 13.598 11.063 24.66 24.66 24.66s24.66-11.063 24.66-24.66c0-13.604-11.062-24.67-24.66-24.67z" fill="#0261df" opacity="1" data-original="#000000" class=""></path><path d="M1223.275 932.985c-17.673 0-32-14.327-32-32V802.97c0-92.236-75.039-167.275-167.275-167.275s-167.275 75.04-167.275 167.275v98.015c0 17.673-14.327 32-32 32s-32-14.327-32-32V802.97c0-61.776 24.057-119.854 67.739-163.536s101.76-67.739 163.536-67.739c61.775 0 119.854 24.057 163.536 67.739 43.683 43.682 67.739 101.76 67.739 163.536v98.015c0 17.673-14.327 32-32 32zM1024 1278.3c-17.673 0-32-14.327-32-32v-95.51c0-17.673 14.327-32 32-32s32 14.327 32 32v95.51c0 17.673-14.327 32-32 32z" fill="#0261df" opacity="1" data-original="#000000" class=""></path></g></svg>