<svg xmlns="http://www.w3.org/2000/svg" xmlns:xlink="http://www.w3.org/1999/xlink" width="40" zoomAndPan="magnify" viewBox="0 0 30 30.000001" height="40" preserveAspectRatio="xMidYMid meet" version="1.2"><defs><clipPath id="6f635c1c00"><path d="M 4.296875 5 L 19 5 L 19 27.582031 L 4.296875 27.582031 Z M 4.296875 5 "/></clipPath><clipPath id="543305ab90"><path d="M 12 1.453125 L 25.347656 1.453125 L 25.347656 24 L 12 24 Z M 12 1.453125 "/></clipPath></defs><g id="9520e2b577"><g clip-rule="nonzero" clip-path="url(#6f635c1c00)"><path style=" stroke:none;fill-rule:nonzero;fill:#ffffff;fill-opacity:1;" d="M 5.964844 5.988281 C 5.964844 5.988281 10.511719 9.640625 11.917969 11.074219 C 13.015625 12.195312 14.121094 13.6875 15.039062 15.097656 C 16.15625 16.8125 16.859375 18.347656 17.171875 19.074219 C 17.378906 19.558594 17.824219 20.707031 18.007812 22.289062 C 18.125 23.277344 18.058594 24.390625 17.808594 25.539062 C 17.171875 28.507812 12.335938 26.914062 12.335938 26.914062 C 12.335938 26.914062 8.246094 25.644531 7.394531 24.160156 C 6.542969 22.675781 4.417969 17.695312 4.417969 17.695312 C 4.417969 17.695312 8.636719 21.8125 10.898438 21.828125 C 12.824219 21.84375 14.273438 20.871094 14.082031 17.828125 C 13.90625 14.777344 8.171875 7.976562 5.964844 5.988281 "/></g><g clip-rule="nonzero" clip-path="url(#543305ab90)"><path style=" stroke:none;fill-rule:nonzero;fill:#ffffff;fill-opacity:1;" d="M 24.179688 23.148438 C 24.179688 23.148438 19.636719 19.492188 18.230469 18.058594 C 17.132812 16.9375 16.023438 15.445312 15.105469 14.035156 C 13.992188 12.320312 13.289062 10.785156 12.972656 10.0625 C 12.765625 9.574219 12.320312 8.429688 12.140625 6.84375 C 12.023438 5.855469 12.089844 4.742188 12.335938 3.597656 C 12.972656 0.628906 17.808594 2.21875 17.808594 2.21875 C 17.808594 2.21875 21.898438 3.488281 22.75 4.972656 C 23.601562 6.457031 25.726562 11.4375 25.726562 11.4375 C 25.726562 11.4375 21.511719 7.324219 19.246094 7.308594 C 17.320312 7.289062 15.875 8.265625 16.058594 11.304688 C 16.246094 14.355469 21.984375 21.167969 24.179688 23.148438 "/></g></g></svg>