<?xml version="1.0" encoding="utf-8"?>
<!-- Generator: Adobe Illustrator 29.6.1, SVG Export Plug-In . SVG Version: 9.03 Build 0)  -->
<svg version="1.0" id="Camada_1" xmlns="http://www.w3.org/2000/svg" xmlns:xlink="http://www.w3.org/1999/xlink" x="0px" y="0px"
	 viewBox="0 0 1080 235.1" style="enable-background:new 0 0 1080 235.1;" xml:space="preserve">
<style type="text/css">
	.st0{fill:#0067B9;}
</style>
<g>
	<path class="st0" d="M379.4,105.3c-2.2-9.1-12-21-29.2-27.2c-13.9-5-42.5-5.2-45.7-5.2c-10,0-16-7.8-16-14.6
		c0-7.3,5.4-11.6,12.1-15.3h71.8V5.7h-65.2c-13.5,0-21.7,3.2-22,3.3l-0.1,0.5c-14.3,5.4-25.2,17-30.1,31.3
		c-1.8,5.3-2.6,10.6-2.6,16.1c0,5.8,1,11.7,3,17.2l0.1,0.2c2.6,7,12.2,21.9,30.3,29.3c10.5,4.3,40.5,5.2,46,5.2
		c8.9,0,13.3,5.5,14.5,10.6c0.2,1.1,0.4,1.9,0.4,3.1c0,0.9-0.3,3.5-0.5,4.3c-1.2,5-5.2,9.4-10.4,11.2h-94.9l-36,33.6h120.6
		c1.9,0,18.4,0.5,23.3-1.6c13.3-5,26.7-18.4,30.5-31c1.8-6,2.6-11.5,2.6-17.8C382,115.7,381.1,110.5,379.4,105.3"/>
	<path class="st0" d="M586.9,105.3c-2.2-9.1-12-21-29.2-27.2c-13.9-5-42.5-5.2-45.7-5.2c-10,0-16-7.8-16-14.6
		c0-7.3,5.4-11.6,12.1-15.3h73.3V5.7h-66.7c-13.5,0-21.7,3.2-22,3.3l-0.1,0.5c-14.3,5.4-25.2,17-30,31.3c-1.8,5.3-2.6,10.6-2.6,16.1
		c0,5.8,1,11.7,3,17.2l0.1,0.2c2.6,7,12.2,21.9,30.3,29.3c10.5,4.3,40.5,5.2,46,5.2c8.8,0,13.3,5.5,14.5,10.6
		c0.2,1.1,0.4,1.9,0.4,3.1c0,0.9-0.3,3.5-0.5,4.3c-1.2,5-5.2,9.4-10.4,11.2h-83.3v33.6h73c1.9,0,18.4,0.5,23.3-1.6
		c13.3-5,26.7-18.4,30.5-31c1.8-6,2.6-11.5,2.6-17.8C589.5,115.7,588.6,110.5,586.9,105.3"/>
	<path class="st0" d="M646.1,84.1c0.3-3.1,1-6.7,2.2-10.1c5.2-15.1,19.2-31.1,36-31.1h50.2V5.7h-51.6l-0.1,0.9
		c-13.3,0.9-26.5,6.1-38.3,14.5c-0.1,0-0.2,0.2-0.3,0.2l-0.6,0.1l-0.5,0.4c-6.9,5.1-13,11.3-18.1,18.4c-7.2,9.9-12,21.1-14.3,33
		c-0.8,4.3-1.3,8.8-1.5,13.3c0,0.4,0,5.1,0,5.4c0.2,4.9,0.7,9.8,1.7,14.4c2.5,12,7.7,23.5,14.9,33.2c5.3,7,11.1,12.9,17.3,17.5
		c12.1,8.9,26.7,14.6,41.9,16.5h49.4v-35.3h-46.3c-18.1-1.9-33.7-15.5-39.8-32.1l-0.1-0.3c-2.8-5.8-2.5-17-2.2-20.8L646.1,84.1
		L646.1,84.1z"/>
	<path class="st0" d="M1075,175.5l-0.7-91.2c-0.2-5-0.7-18.2-0.7-18.7c0-22.5-16.8-43.4-33.4-52.8l-0.4-1.5h-0.1
		c-2.8,0-16.3-6.3-32-6.3c-14.9,0-30.5,7.4-33.6,8.8l-0.5,0.6c-21.3,12.4-34.1,32.6-34.1,52.7v108.4h36.9l-1-93l-0.1-8v-1.3
		c1.9-16.8,13.8-30,30.1-30c17.5,0,29.6,11.4,29.6,27.6v104.8L1075,175.5L1075,175.5z"/>
	<path class="st0" d="M837.4,6.7c-45.7,0-82.9,37.2-82.9,82.9s37.2,82.9,82.9,82.9s82.9-37.2,82.9-82.9S883.1,6.7,837.4,6.7
		 M836.6,43.9c25.2,0,45.8,20.5,45.8,45.8s-20.5,45.8-45.8,45.8s-45.8-20.6-45.8-45.8S811.3,43.9,836.6,43.9"/>
	<rect x="398.6" y="5.7" class="st0" width="41" height="166.1"/>
	<path class="st0" d="M221.9,199.7c4.1,0,7.9,1.5,10.6,4.2c0.4,0.4,0.4,1.1,0,1.5l-1.3,1.3c-0.5,0.5-1.1,0.4-1.5,0
		c-1.9-2-4.8-3-7.8-3c-6.2,0-11.2,5-11.2,11.2s4.9,11.2,11.2,11.2c3,0,5.8-1.1,7.8-3c0.4-0.4,1.1-0.5,1.5,0l1.3,1.3
		c0.4,0.4,0.4,1.1,0,1.5c-2.7,2.7-6.5,4.2-10.6,4.2c-8.4,0-15.2-6.8-15.2-15.2S213.6,199.8,221.9,199.7"/>
	<path class="st0" d="M297.2,199.7c8.4,0,15.2,6.8,15.2,15.2s-6.8,15.2-15.2,15.2s-15.2-6.8-15.2-15.2S288.8,199.7,297.2,199.7
		 M297.2,226.1c6.2,0,11.2-5,11.2-11.2s-5-11.2-11.2-11.2s-11.2,5-11.2,11.2S291,226.1,297.2,226.1"/>
	<path class="st0" d="M384.6,200.1c0.6,0,1,0.4,1,1.1v27.4c0,0.5-0.5,1-1,1h-1.7c-0.5,0-0.9-0.1-1.1-0.5l-13.2-19.7
		c-0.2-0.3-1-0.5-1,0.8v18.4c0,0.5-0.5,1-1,1h-1.9c-0.6,0-1-0.5-1-1v-27.4c0-0.7,0.5-1.1,1-1.1h1.9c0.4,0,0.7,0.2,1,0.6l13.2,19.7
		c0.3,0.4,1,0.7,1-0.8v-18.4c0-0.7,0.5-1.1,1-1.1L384.6,200.1L384.6,200.1z"/>
	<path class="st0" d="M436.1,201.2c0-0.6,0.4-1.1,1-1.1H456c0.5,0,1,0.5,1,1.1v1.8c0,0.6-0.5,1.1-1,1.1h-6.6c-0.5,0-0.9,0.5-0.9,0.9
		v23.6c0,0.5-0.5,1-1,1h-1.9c-0.6,0-1-0.5-1-1v-23.5c0-0.5-0.4-1-0.8-1h-6.6c-0.6,0-1-0.5-1-1.1L436.1,201.2L436.1,201.2z"/>
	<path class="st0" d="M510.8,222.6c-0.6,0-1,0.4-1.2,1l-1.9,5.3c-0.3,0.8-1.1,0.7-1.7,0.7h-1.7c-0.5,0-0.8-0.7-0.6-1.3l9.7-27.6
		c0.1-0.3,0.6-0.7,1.1-0.7h2.4c0.5,0,0.9,0.3,1,0.6l9.7,27.7c0.2,0.5,0.1,1.3-0.6,1.3h-1.7c-0.5,0-1.4,0.1-1.7-0.7l-1.8-5
		c-0.2-0.8-0.6-1.3-1.5-1.3L510.8,222.6L510.8,222.6z M516.3,208.1c-0.2-0.6-1-0.4-1.2,0.1l-3.3,9.6c-0.2,0.4,0.3,0.8,0.8,0.8h6.4
		c0.5,0,0.8-0.5,0.7-0.8L516.3,208.1z"/>
	<path class="st0" d="M579.2,229.6c-0.6,0-1-0.4-1-1v-27.4c0-0.6,0.5-1.1,1-1.1h6.1c8.5,0,11.8,3.1,11.8,8.4c0,2.2-0.8,3.9-1.9,5.4
		c-0.3,0.5-0.2,0.8,0.2,1.1c1.9,1.5,2.9,3.6,2.9,6.3c0,5.3-3.3,8.4-11.8,8.4L579.2,229.6L579.2,229.6z M583,204.1
		c-0.5,0-0.9,0.5-0.9,1v6.9c0,0.5,0.4,0.9,0.9,0.9h2.8c6.6,0,7.4-2.3,7.4-4.4s-0.8-4.4-7.9-4.4L583,204.1L583,204.1z M583,216.9
		c-0.5,0-0.9,0.4-0.9,0.9v6.8c0,0.6,0.3,1.1,0.8,1.1h3.6c7.1,0,7.9-2.2,7.9-4.4s-0.8-4.4-7.9-4.4H583L583,216.9z"/>
	<path class="st0" d="M652.7,200.1c0.6,0,1,0.4,1,1.1v27.4c0,0.5-0.5,1-1,1h-1.9c-0.6,0-1-0.5-1-1v-27.4c0-0.7,0.5-1.1,1-1.1H652.7z
		"/>
	<path class="st0" d="M708.9,200.1c0.6,0,1,0.4,1,1.1v23.4c0,0.8,0.3,1.1,0.8,1.1h13c0.5,0,1,0.5,1,1v1.9c0,0.6-0.5,1-1,1h-16.7
		c-0.7,0-1-0.5-1-1v-27.4c0-0.7,0.5-1.1,1-1.1H708.9L708.9,200.1z"/>
	<path class="st0" d="M778.4,200.1c0.6,0,1,0.4,1,1.1v27.4c0,0.5-0.5,1-1,1h-1.9c-0.6,0-1-0.5-1-1v-27.4c0-0.7,0.5-1.1,1-1.1H778.4z
		"/>
	<path class="st0" d="M832.7,229.6c-0.6,0-1-0.5-1-1v-27.4c0-0.7,0.5-1.1,1-1.1h8.5c8.4,0,14.8,6.4,14.8,14.8s-6.4,14.7-14.8,14.7
		L832.7,229.6L832.7,229.6z M841.2,225.7c6.2,0,10.8-4.6,10.8-10.8s-4.6-10.8-10.8-10.8h-4.7c-0.5,0-0.9,0.5-0.9,1v19.5
		c0,0.7,0.5,1.1,1,1.1L841.2,225.7L841.2,225.7z"/>
	<path class="st0" d="M911,222.6c-0.6,0-1,0.4-1.2,1l-1.9,5.3c-0.3,0.8-1.1,0.7-1.7,0.7h-1.7c-0.5,0-0.8-0.7-0.6-1.3l9.7-27.6
		c0.1-0.3,0.6-0.7,1.1-0.7h2.4c0.5,0,0.9,0.3,1,0.6l9.7,27.7c0.2,0.5,0.1,1.3-0.6,1.3h-1.7c-0.5,0-1.4,0.1-1.7-0.7l-1.8-5
		c-0.2-0.8-0.6-1.3-1.5-1.3L911,222.6L911,222.6z M916.5,208.1c-0.2-0.6-1-0.4-1.2,0.1l-3.3,9.6c-0.2,0.4,0.3,0.8,0.8,0.8h6.4
		c0.5,0,0.8-0.5,0.7-0.8L916.5,208.1L916.5,208.1z"/>
	<path class="st0" d="M979.4,229.6c-0.6,0-1-0.5-1-1v-27.4c0-0.7,0.5-1.1,1-1.1h8.5c8.4,0,14.8,6.4,14.8,14.8s-6.4,14.7-14.8,14.7
		L979.4,229.6L979.4,229.6z M987.9,225.7c6.2,0,10.8-4.6,10.8-10.8s-4.6-10.8-10.8-10.8h-4.7c-0.5,0-0.9,0.5-0.9,1v19.5
		c0,0.7,0.5,1.1,1,1.1L987.9,225.7L987.9,225.7z"/>
	<path class="st0" d="M1071.7,200.1c0.5,0,1,0.5,1,1.1v1.8c0,0.6-0.5,1.1-1,1.1h-13c-0.5,0-0.8,0.5-0.8,1v7.2c0,0.6,0.3,1.1,0.8,1.1
		h13c0.5,0,1,0.5,1,1v1.9c0,0.6-0.5,1-1,1h-13c-0.5,0-0.8,0.4-0.8,0.9v6.4c0,0.5,0.4,0.9,0.9,0.9h12.9c0.5,0,1,0.5,1,1v1.9
		c0,0.6-0.5,1-1,1H1055c-0.6,0-1-0.5-1-1v-27.4c0-0.7,0.5-1.1,1-1.1L1071.7,200.1L1071.7,200.1z"/>
	<path class="st0" d="M17.5,49.4c0,0,37,29.9,48.5,41.5c9,9.2,18,21.3,25.5,32.9c9.1,14,14.8,26.5,17.4,32.5
		c1.7,4,5.3,13.4,6.8,26.3c0.9,8.1,0.4,17.2-1.6,26.5c-5.2,24.2-44.6,11.2-44.6,11.2s-33.3-10.4-40.2-22.5C22.3,185.7,5,145,5,145
		s34.4,33.6,52.8,33.8c15.7,0.1,27.5-7.8,26-32.7C82.2,121.2,35.5,65.6,17.5,49.4"/>
	<path class="st0" d="M166,189.6c0,0-37-29.9-48.5-41.5c-9-9.2-18-21.3-25.5-32.9c-9.1-14-14.8-26.6-17.4-32.5
		c-1.7-4-5.3-13.4-6.8-26.3c-0.9-8.1-0.4-17.2,1.6-26.5C74.7,5.7,114,18.7,114,18.7s33.3,10.4,40.2,22.5s24.2,52.8,24.2,52.8
		s-34.4-33.6-52.8-33.8c-15.7-0.1-27.5,7.8-26,32.7S148,173.3,166,189.6"/>
</g>
</svg>
