<svg xmlns="http://www.w3.org/2000/svg" xmlns:xlink="http://www.w3.org/1999/xlink" width="40" zoomAndPan="magnify" viewBox="0 0 30 30.000001" height="40" preserveAspectRatio="xMidYMid meet" version="1.2"><defs><clipPath id="74cd71ede2"><path d="M 4.296875 5 L 18 5 L 18 27.582031 L 4.296875 27.582031 Z M 4.296875 5 "/></clipPath><clipPath id="fb72abddd1"><path d="M 11 1.453125 L 25.347656 1.453125 L 25.347656 24 L 11 24 Z M 11 1.453125 "/></clipPath></defs><g id="2e8af3a562"><g clip-rule="nonzero" clip-path="url(#74cd71ede2)"><path style=" stroke:none;fill-rule:nonzero;fill:#012552;fill-opacity:1;" d="M 5.84375 5.988281 C 5.84375 5.988281 10.378906 9.640625 11.777344 11.074219 C 12.875 12.195312 13.980469 13.6875 14.894531 15.097656 C 16.007812 16.8125 16.710938 18.347656 17.023438 19.074219 C 17.230469 19.558594 17.675781 20.707031 17.855469 22.289062 C 17.972656 23.277344 17.90625 24.390625 17.65625 25.539062 C 17.023438 28.507812 12.199219 26.914062 12.199219 26.914062 C 12.199219 26.914062 8.117188 25.644531 7.269531 24.160156 C 6.417969 22.675781 4.300781 17.695312 4.300781 17.695312 C 4.300781 17.695312 8.503906 21.8125 10.765625 21.828125 C 12.6875 21.84375 14.128906 20.871094 13.9375 17.828125 C 13.765625 14.777344 8.042969 7.976562 5.84375 5.988281 "/></g><g clip-rule="nonzero" clip-path="url(#fb72abddd1)"><path style=" stroke:none;fill-rule:nonzero;fill:#012552;fill-opacity:1;" d="M 24.015625 23.148438 C 24.015625 23.148438 19.480469 19.492188 18.078125 18.058594 C 16.980469 16.9375 15.878906 15.445312 14.960938 14.035156 C 13.847656 12.320312 13.148438 10.785156 12.835938 10.0625 C 12.628906 9.574219 12.183594 8.429688 12 6.84375 C 11.886719 5.855469 11.953125 4.742188 12.199219 3.597656 C 12.835938 0.628906 17.65625 2.21875 17.65625 2.21875 C 17.65625 2.21875 21.738281 3.488281 22.589844 4.972656 C 23.4375 6.457031 25.558594 11.4375 25.558594 11.4375 C 25.558594 11.4375 21.351562 7.324219 19.09375 7.308594 C 17.171875 7.289062 15.730469 8.265625 15.910156 11.304688 C 16.101562 14.355469 21.820312 21.167969 24.015625 23.148438 "/></g></g></svg>