<?xml version="1.0" encoding="utf-8"?>
<!-- Generator: Adobe Illustrator 29.6.1, SVG Export Plug-In . SVG Version: 9.03 Build 0)  -->
<svg version="1.0" id="Camada_1" xmlns="http://www.w3.org/2000/svg" xmlns:xlink="http://www.w3.org/1999/xlink" x="0px" y="0px"
	 viewBox="0 0 1080 669" style="enable-background:new 0 0 1080 669;" xml:space="preserve">
<style type="text/css">
	.st0{fill:#FFFFFF;}
</style>
<g>
	<path class="st0" d="M191.6,491"/>
	<path class="st0" d="M191.6,491"/>
	<path class="st0" d="M220.9,510.3c-2.7-11.2-14.8-25.9-35.9-33.5c-17.1-6.2-52.3-6.4-56.3-6.4c-12.3,0-19.7-9.4-19.7-17.8
		c0-8.9,6.1-18.3,14.9-18.7h87.7v-44.3h-79.5c-16.7,0-26.7,2.9-27.1,3l-0.2,0.1c-17.6,6.7-31.1,20.7-37,38.3
		c-2.2,6.5-3.2,13-3.2,19.7c0,7.2,1.3,14.3,3.7,21.2l0.1,0.3c3.2,8.7,15,27,37.4,36.1c13,5.3,50,6.4,56.7,6.4
		c10.9,0,16.4,6.7,17.9,13.1c0.3,1.3,0.5,2.4,0.5,3.8c0,1.1-0.4,4.1-0.6,5.2c-1.5,6.2-6.4,11.3-12.8,13.7H50.6l-44.4,42h148.5h0
		c2.3,0,22.6,0.5,28.7-2.2c16.4-6.2,32.9-22.7,37.6-38.3c2.2-7.4,3.2-14.2,3.2-21.9C224.1,523.1,223.1,516.7,220.9,510.3"/>
	<path class="st0" d="M476.6,510.3c-2.7-11.2-14.8-25.9-35.9-33.5c-17.1-6.2-52.3-6.4-56.3-6.4c-12.3,0-19.7-9.4-19.7-17.8
		c0-8.9,6-18.7,14.9-18.7h90.1v-44.3h-81.9c-16.7,0-26.7,2.9-27.1,3l-0.2,0.1c-17.6,6.7-31.1,20.7-37,38.3c-2.2,6.5-3.2,13-3.2,19.7
		c0,7.2,1.3,14.3,3.7,21.2l0.1,0.3c3.2,8.7,15,27,37.4,36.1c13,5.3,50,6.4,56.7,6.4c10.9,0,16.4,6.7,17.9,13.1
		c0.3,1.3,0.5,2.4,0.5,3.8c0,1.1-0.4,4.1-0.6,5.2c-1.5,6.2-6.4,11.3-12.8,13.7H320.4v42h90h0c2.3,0,22.6,0.5,28.7-2.2
		c16.4-6.2,32.9-22.7,37.6-38.3c2.2-7.4,3.2-14.2,3.2-21.9C479.8,523.1,478.7,516.7,476.6,510.3"/>
	<path class="st0" d="M542.7,491"/>
	<path class="st0" d="M549.5,484.2c0.4-3.9,1.3-8.1,2.7-12.2c6.4-18.6,23.7-38.1,44.3-38.1h62v-44.3h-63.7l-0.1,0.1
		c-16.5,1.1-32.7,7.1-47.1,17.3c-0.2,0-0.3,0-0.3,0l-0.7,0l-0.6,0.4c-8.5,6.3-16,13.9-22.3,22.6c-8.9,12.2-14.8,25.9-17.6,40.7
		c-1,5.3-1.7,10.8-1.8,16.4c0,0.5,0,6.2,0,6.7c0.2,6,0.9,12,2.1,17.8c3.1,14.8,9.4,28.9,18.4,40.9c6.5,8.7,13.7,15.9,21.3,21.6
		c14.9,11,32.9,18,51.7,20.3l60.9,0v-43.8h-57.2c-22.3-2.3-41.5-18.9-49-39.3l-0.1-0.3c-3.5-7.2-3.1-20.9-2.8-25.5L549.5,484.2z"/>
	<path class="st0" d="M252.4,491"/>
	<path class="st0" d="M191,491"/>
	<path class="st0" d="M1033,398.5c0,0-16-9.7-35.3-10.7c-0.9-0.2-8.7-0.2-9.6,0c-21.5,2.4-35.3,10.7-35.3,10.7
		c-26.3,15.3-42,39.4-42,64.2l0,132.9H957v-125c2.3-20.7,15.8-36.9,35.8-36.9c0.1,0,0.2,0,0.3,0c0.1,0,0.2,0,0.3,0
		c20.1,0,33.5,16.2,35.8,36.9v125h45.8l0-132.9C1075,437.9,1059.3,413.8,1033,398.5"/>
	<path class="st0" d="M785.2,388.8C728.8,388.8,683,434.6,683,491c0,56.3,45.8,102.2,102.2,102.2c56.3,0,102.2-45.8,102.2-102.2
		C887.3,434.6,841.5,388.8,785.2,388.8 M784.1,434.7c31.1,0,56.4,25.3,56.4,56.4c0,31.1-25.3,56.4-56.4,56.4
		c-31.1,0-56.4-25.3-56.4-56.4C727.7,460,753,434.7,784.1,434.7"/>
	<path class="st0" d="M652.3,491"/>
	<rect x="245.8" y="389.6" class="st0" width="46.6" height="202.9"/>
	<path class="st0" d="M23.7,626.7c5.1,0,9.8,1.8,13,5.2c0.5,0.5,0.5,1.3,0,1.8l-1.6,1.6c-0.6,0.6-1.4,0.5-1.9,0
		c-2.4-2.5-5.8-3.7-9.5-3.7c-7.6,0-13.7,6.2-13.7,13.8c0,7.6,6.1,13.8,13.7,13.8c3.7,0,7.1-1.3,9.5-3.7c0.5-0.5,1.3-0.6,1.9,0
		l1.6,1.6c0.5,0.5,0.5,1.4,0,1.8c-3.3,3.3-8,5.2-13,5.2C13.4,664,5,655.7,5,645.3C5,635,13.4,626.7,23.7,626.7"/>
	<path class="st0" d="M116.3,626.6c10.4,0,18.7,8.4,18.7,18.7c0,10.4-8.4,18.7-18.7,18.7c-10.3,0-18.7-8.3-18.7-18.7
		C97.7,635,106,626.6,116.3,626.6 M116.3,659.1c7.7,0,13.9-6.2,13.9-13.8c0-7.6-6.2-13.9-13.9-13.9c-7.6,0-13.8,6.2-13.8,13.9
		C102.6,653,108.7,659.1,116.3,659.1"/>
	<path class="st0" d="M224.1,627.1c0.7,0,1.3,0.5,1.3,1.3v33.8c0,0.7-0.6,1.3-1.3,1.3H222c-0.7,0-1.1-0.2-1.4-0.6l-16.3-24.3
		c-0.3-0.4-1.3-0.6-1.3,1v22.6c0,0.7-0.6,1.3-1.3,1.3h-2.3c-0.7,0-1.3-0.6-1.3-1.3v-33.8c0-0.8,0.6-1.3,1.3-1.3h2.3
		c0.5,0,0.8,0.2,1.2,0.8l16.3,24.2c0.4,0.5,1.2,0.8,1.2-0.9v-22.7c0-0.8,0.6-1.3,1.3-1.3H224.1z"/>
	<path class="st0" d="M287.4,628.4c0-0.8,0.5-1.3,1.3-1.3H312c0.7,0,1.3,0.6,1.3,1.3v2.3c0,0.7-0.6,1.3-1.3,1.3h-8.1
		c-0.6,0-1.1,0.6-1.1,1.1v29.1c0,0.7-0.6,1.3-1.3,1.3h-2.3c-0.7,0-1.3-0.6-1.3-1.3v-28.9c0-0.6-0.5-1.3-1-1.3h-8.2
		c-0.8,0-1.3-0.6-1.3-1.3V628.4z"/>
	<path class="st0" d="M379.5,654.9c-0.8,0-1.2,0.5-1.4,1.2l-2.3,6.6c-0.4,1-1.4,0.9-2.1,0.9h-2.1c-0.7,0-1-0.9-0.8-1.6l12-34
		c0.2-0.4,0.8-0.8,1.3-0.8h2.9c0.6,0,1.1,0.4,1.3,0.8l12,34.1c0.3,0.7,0.1,1.6-0.8,1.6h-2.1c-0.7,0-1.7,0.1-2.1-0.9l-2.2-6.2
		c-0.3-0.9-0.8-1.6-1.8-1.6H379.5z M386.3,637c-0.3-0.7-1.2-0.5-1.4,0.1l-4.1,11.9c-0.2,0.5,0.4,1,1,1h7.8c0.6,0,1-0.6,0.9-1
		L386.3,637z"/>
	<path class="st0" d="M463.8,663.5c-0.7,0-1.3-0.5-1.3-1.3v-33.8c0-0.7,0.6-1.3,1.3-1.3h7.5c10.5,0,14.6,3.8,14.6,10.3
		c0,2.7-0.9,4.8-2.3,6.7c-0.4,0.6-0.2,1,0.3,1.4c2.4,1.9,3.5,4.4,3.5,7.7c0,6.5-4.1,10.3-14.6,10.3H463.8z M468.5,632
		c-0.7,0-1.1,0.6-1.1,1.3v8.5c0,0.6,0.5,1.1,1.1,1.1h3.4c8.1,0,9.1-2.8,9.1-5.4c0-2.7-1-5.4-9.7-5.4H468.5z M468.5,647.7
		c-0.6,0-1.1,0.5-1.1,1.1v8.4c0,0.7,0.4,1.3,1,1.3h4.4c8.7,0,9.7-2.8,9.7-5.4c0-2.6-1-5.4-9.7-5.4H468.5z"/>
	<path class="st0" d="M554.4,627.1c0.7,0,1.3,0.5,1.3,1.3v33.8c0,0.7-0.6,1.3-1.3,1.3H552c-0.7,0-1.3-0.6-1.3-1.3v-33.8
		c0-0.8,0.6-1.3,1.3-1.3H554.4z"/>
	<path class="st0" d="M623.6,627.1c0.7,0,1.3,0.5,1.3,1.3v28.9c0,1,0.4,1.3,1,1.3h16c0.7,0,1.3,0.6,1.3,1.3v2.3
		c0,0.7-0.6,1.3-1.3,1.3h-20.6c-0.9,0-1.3-0.6-1.3-1.3v-33.8c0-0.8,0.6-1.3,1.3-1.3H623.6z"/>
	<path class="st0" d="M709.2,627.1c0.7,0,1.3,0.5,1.3,1.3v33.8c0,0.7-0.6,1.3-1.3,1.3h-2.3c-0.7,0-1.3-0.6-1.3-1.3v-33.8
		c0-0.8,0.6-1.3,1.3-1.3H709.2z"/>
	<path class="st0" d="M776.1,663.5c-0.7,0-1.3-0.6-1.3-1.3v-33.8c0-0.8,0.6-1.3,1.3-1.3h10.4c10.4,0,18.2,7.9,18.2,18.3
		c0,10.4-7.8,18.2-18.2,18.2H776.1z M786.5,658.6c7.6,0,13.3-5.6,13.3-13.3c0-7.6-5.6-13.3-13.3-13.3h-5.7c-0.6,0-1.1,0.6-1.1,1.3
		v24c0,0.8,0.6,1.3,1.3,1.3H786.5z"/>
	<path class="st0" d="M872.5,654.9c-0.8,0-1.2,0.5-1.4,1.2l-2.3,6.6c-0.4,1-1.4,0.9-2.1,0.9h-2.1c-0.7,0-1-0.9-0.8-1.6l12-34
		c0.2-0.4,0.8-0.8,1.3-0.8h2.9c0.6,0,1.1,0.4,1.3,0.8l12,34.1c0.3,0.7,0.1,1.6-0.8,1.6h-2.1c-0.7,0-1.7,0.1-2-0.9l-2.2-6.2
		c-0.3-0.9-0.8-1.6-1.8-1.6H872.5z M879.3,637c-0.3-0.7-1.2-0.5-1.4,0.1l-4.1,11.9c-0.2,0.5,0.4,1,1,1h7.8c0.6,0,1-0.6,0.9-1
		L879.3,637z"/>
	<path class="st0" d="M956.8,663.5c-0.7,0-1.3-0.6-1.3-1.3v-33.8c0-0.8,0.6-1.3,1.3-1.3h10.4c10.4,0,18.2,7.9,18.2,18.3
		c0,10.4-7.9,18.2-18.2,18.2H956.8z M967.2,658.6c7.6,0,13.3-5.6,13.3-13.3c0-7.6-5.6-13.3-13.3-13.3h-5.7c-0.6,0-1.1,0.6-1.1,1.3
		v24c0,0.8,0.6,1.3,1.3,1.3H967.2z"/>
	<path class="st0" d="M1070.5,627.1c0.7,0,1.3,0.6,1.3,1.3v2.3c0,0.7-0.6,1.3-1.3,1.3h-16c-0.6,0-1,0.7-1,1.3v8.9
		c0,0.7,0.4,1.3,1,1.3h16c0.7,0,1.3,0.6,1.3,1.3v2.3c0,0.7-0.6,1.3-1.3,1.3h-16c-0.6,0-1,0.5-1,1.1v8c0,0.7,0.5,1.1,1.1,1.1h16
		c0.7,0,1.3,0.6,1.3,1.3v2.3c0,0.7-0.6,1.3-1.3,1.3h-20.6c-0.7,0-1.3-0.6-1.3-1.3v-33.8c0-0.8,0.6-1.3,1.3-1.3H1070.5z"/>
	<path class="st0" d="M431.8,55.8c0,0,55,44.3,72,61.7c13.3,13.6,26.7,31.7,37.8,48.8c13.5,20.8,22,39.4,25.8,48.2
		c2.5,5.9,7.9,19.8,10.1,39c1.4,12,0.6,25.5-2.4,39.4c-7.7,36-66.2,16.7-66.2,16.7s-49.5-15.4-59.8-33.4c-10.3-18-36-78.4-36-78.4
		s51,49.9,78.4,50.1c23.3,0.2,40.8-11.6,38.5-48.5C527.9,162.4,458.5,79.9,431.8,55.8"/>
	<path class="st0" d="M652.2,263.9c0,0-55-44.3-72-61.7c-13.3-13.6-26.7-31.7-37.8-48.8c-13.5-20.8-22-39.4-25.8-48.2
		c-2.5-5.9-7.9-19.8-10.1-39c-1.4-12-0.6-25.5,2.4-39.4c7.7-36,66.2-16.7,66.2-16.7s49.5,15.4,59.8,33.4c10.3,18,36,78.4,36,78.4
		s-51-49.9-78.4-50.1c-23.3-0.2-40.8,11.6-38.6,48.5C556.2,157.3,625.6,239.9,652.2,263.9"/>
</g>
</svg>
