<svg xmlns="http://www.w3.org/2000/svg" version="1.1" xmlns:xlink="http://www.w3.org/1999/xlink" width="512" height="512" x="0" y="0" viewBox="0 0 480 480" style="enable-background:new 0 0 512 512" xml:space="preserve"><g><path d="M240.008 162.394c-44.474 0-80.654 36.2-80.654 80.633 0 44.452 36.182 80.63 80.654 80.63 44.413 0 80.588-36.178 80.588-80.63 0-44.433-36.172-80.633-80.588-80.633zm0 14.574c36.53 0 66.013 29.502 66.013 66.059 0 36.58-29.48 66.056-66.013 66.056-36.604 0-66.08-29.476-66.08-66.056 0-36.557 29.479-66.059 66.08-66.059z" fill="#0261df" opacity="1" data-original="#000000"></path><path d="M201.916 208.565a190.66 190.66 0 0 0-8.769.114h-.004c-8.306.273-16.47 1.162-24.471 2.502l-.505.085-.204.47a77.47 77.47 0 0 0-4.077 12.095l-.355 1.437 1.45-.29a180.362 180.362 0 0 1 28.638-3.376c45.882-1.621 88.285 14.473 120.634 42.094l1.129.964.39-1.432a78.28 78.28 0 0 0 2.312-12.552l-.934-.096.586-.734c-31.939-25.478-72.2-40.846-115.82-41.281z" fill="#0261df" opacity="1" data-original="#000000"></path><path d="m265.542 212.463.775 2.28h2.375l-1.928 1.41.728 2.258-1.951-1.388-1.928 1.388.775-2.257-1.928-1.41h2.374l.706-2.281M240.316 277.516l.728 2.28h2.398l-1.928 1.388.73 2.28-1.928-1.41-1.928 1.41.728-2.28-1.928-1.388h2.398l.728-2.28M297.47 269.499l.752 2.35h2.445l-1.975 1.411.752 2.304-1.974-1.41-1.952 1.41.728-2.304-1.951-1.41h2.421l.753-2.351M280.777 287.037l.495 1.505h1.576l-1.27.918.493 1.505-1.292-.916-1.27.916.495-1.505-1.27-.918h1.575l.47-1.505M271.655 289.788l.542 1.646h1.693l-1.387.987.542 1.622-1.388-1.012-1.364 1.012.518-1.622-1.386-.987h1.717l.517-1.646M264.508 296.089l.658 2.069h2.187l-1.787 1.294.705 2.045-1.762-1.27-1.787 1.27.705-2.045-1.786-1.294h2.186zM258.184 287.696l.517 1.576h1.693l-1.364.963.542 1.599-1.388-.988-1.341.988.517-1.6-1.341-.962h1.646l.517-1.576M281.177 294.279l.68 1.998h2.117l-1.74 1.247.658 1.998-1.717-1.222-1.693 1.222.659-1.998-1.718-1.247h2.116l.634-1.998M240.222 307.21l.235.727h.752l-.611.448.235.728-.611-.446-.611.446.235-.728-.612-.448h.775zM261.593 236.96l.54 1.646h1.717l-1.386 1.012.541 1.67-1.41-1.012-1.388 1.012.517-1.67-1.386-1.012h1.717l.542-1.646M240.269 254.71l.587 1.74h1.833l-1.504 1.082.587 1.74-1.505-1.082-1.458 1.082.565-1.74-1.483-1.082h1.834l.542-1.74M249.744 262.046l.586 1.856h1.975l-1.576 1.151.611 1.857-1.598-1.151-1.599 1.15.634-1.856-1.623-1.15h1.975l.61-1.857M232.11 262.281l.448 1.482h1.577l-1.27.894.47 1.504-1.222-.94-1.27.94.47-1.504-1.247-.894h1.53l.517-1.482M236.013 268.91l.307 1.01h1.035l-.847.588.33.963-.823-.587-.846.587.33-.963-.823-.587h1.01l.33-1.01M173.452 226.498l.753 2.28h2.374l-1.927 1.389.73 2.28-1.929-1.388-1.927 1.388.752-2.28-1.928-1.388h2.375l.73-2.28M208.694 244.79l.587 1.856h1.975l-1.599 1.15.634 1.882-1.598-1.151-1.624 1.15.636-1.88-1.599-1.151h1.975l.612-1.857M180.764 260.682l.728 2.304h2.398l-1.928 1.41.728 2.281-1.928-1.433-1.951 1.433.728-2.28-1.928-1.41h2.398l.752-2.305M188.664 257.297l.376 1.15h1.175l-.963.706.377 1.129-.963-.706-.963.706.376-1.129-.963-.705h1.175l.376-1.151M197.856 269.264l.611 1.95h2.046l-1.646 1.2.611 1.929-1.623-1.2-1.692 1.2.658-1.928-1.67-1.2h2.045l.658-1.951M207.425 284.24l.728 2.28h2.398l-1.928 1.388.73 2.257-1.928-1.388-1.928 1.388.73-2.257-1.928-1.388h2.398l.73-2.28M195.176 277.398l.658 1.928h2.022l-1.646 1.2.636 1.928-1.67-1.198-1.623 1.198.611-1.928-1.646-1.2h2.046l.611-1.928" fill="#0261df" opacity="1" data-original="#000000"></path><path d="M240.014 102.702 25 239.988l10.998 7.023 204.016 130.287L455 239.988zm0 19.776 184.021 117.51-184.021 117.535L55.969 239.988z" fill="#0261df" opacity="1" data-original="#000000"></path><path d="M56 0C25.114 0 0 25.115 0 56v368.002C0 454.888 25.114 480 56 480h368c30.886 0 56-25.112 56-55.998V56c0-30.885-25.114-56-56-56zm0 15.998h368c22.298 0 40 17.704 40 40.002v368.002c0 22.298-17.702 40-40 40H56c-22.298 0-40-17.702-40-40V56c0-22.298 17.702-40.002 40-40.002z" fill="#0261df" opacity="1" data-original="#000000"></path></g></svg>