<svg xmlns="http://www.w3.org/2000/svg" version="1.1" xmlns:xlink="http://www.w3.org/1999/xlink" width="512" height="512" x="0" y="0" viewBox="0 0 512 512" style="enable-background:new 0 0 512 512" xml:space="preserve" class=""><g><path d="m439.38 357.12-174.76-100.9c-5.42-3.1-11.88-3.09-17.27.02L72.62 357.12c-4.4 2.54-7.36 6.68-8.33 11.65-1 5.04.2 10.01 3.32 13.95 28.98 37.26 67.64 64.75 111.99 79.71 13.08 29.19 42.39 49.58 76.4 49.58 33.97 0 63.26-20.37 76.35-49.54 44.39-14.99 83.07-42.5 112.03-79.74 3.12-4 4.29-8.96 3.31-13.87-.92-5.01-3.88-9.18-8.31-11.74zM217.96 484.26c1.32-14.3 13.37-25.54 28.01-25.54h20.04c14.65 0 26.71 11.23 28.04 25.53C283.2 491.66 270.1 496 256 496s-27.19-4.34-38.04-11.74zm89.65-12.25c-6.12-17.06-22.45-29.3-41.6-29.3h-20.04c-19.14 0-35.47 12.25-41.58 29.32-10.01-11.8-16.06-27.06-16.06-43.71 0-37.32 30.36-67.68 67.68-67.68 37.3 0 67.65 30.36 67.65 67.68-.01 16.64-6.06 31.89-16.05 43.69zm124.14-99.12c-24.59 31.62-56.68 55.71-93.44 70.33.87-4.84 1.36-9.82 1.36-14.9 0-46.15-37.53-83.69-83.66-83.69-46.15 0-83.69 37.54-83.69 83.69 0 5.08.48 10.04 1.35 14.87-36.73-14.59-68.81-38.68-93.45-70.36-.22-.28-.31-.45-.2-.97.09-.47.21-.63.62-.87l174.73-100.88c.42-.24.75-.31 1.29 0L431.39 371c.42.24.5.39.59.88.09.5.01.7-.23 1.01zM243.09 219.12V17.3c0-5.05-2.09-9.68-5.94-13.06-3.82-3.31-8.68-4.76-13.7-4.09-38.04 5.21-74.54 19.72-105.8 42.02-6.63-1.7-13.58-2.6-20.73-2.6-46.13 0-83.66 37.54-83.66 83.69 0 16.99 5.1 32.8 13.84 46.02-6.38 21.73-9.62 44.31-9.62 67.17 0 31.17 5.92 61.47 17.6 90.04 1.91 4.7 5.61 8.2 10.47 9.87 1.84.62 3.71.93 5.58.93 2.99 0 5.94-.79 8.64-2.35l174.72-100.86c5.38-3.16 8.6-8.75 8.6-14.96zM96.92 55.58c37.32 0 67.68 30.36 67.68 67.68 0 16.64-6.06 31.89-16.07 43.69-6.11-17.08-22.44-29.33-41.58-29.33H86.91c-19.15 0-35.48 12.25-41.6 29.31-10-11.79-16.04-27.04-16.04-43.67 0-37.32 30.35-67.68 67.65-67.68zm38.04 123.59a67.297 67.297 0 0 1-38.04 11.73c-14.1 0-27.19-4.34-38.04-11.74 1.33-14.3 13.39-25.53 28.04-25.53h20.04c14.62 0 26.68 11.24 28 25.54zm92.11 39.95c0 .47-.11.8-.64 1.11L51.76 321.06c-.41.24-.66.26-1.05.13-.45-.16-.62-.32-.8-.76-10.89-26.65-16.41-54.91-16.41-83.99 0-17.7 2.08-35.22 6.19-52.25 14.98 14.07 35.11 22.72 57.23 22.72 46.15 0 83.69-37.53 83.69-83.66 0-32.1-18.18-60.03-44.77-74.06 27.09-17.4 57.85-28.8 89.76-33.17.47-.06.69.01 1.02.29.37.32.45.51.45.98zm271.67-95.87c0-46.15-37.54-83.69-83.69-83.69-7.15 0-14.1.91-20.73 2.6C363.06 19.87 326.58 5.36 288.53.14c-4.99-.67-9.85.78-13.72 4.13-3.82 3.36-5.93 7.98-5.93 13.02v201.83c0 6.21 3.22 11.8 8.65 14.99l174.68 100.83c2.69 1.55 5.63 2.33 8.63 2.33 1.88 0 3.78-.31 5.66-.94 4.79-1.65 8.48-5.15 10.39-9.84 11.68-28.58 17.6-58.88 17.6-90.05 0-22.86-3.23-45.44-9.59-67.17 8.74-13.21 13.84-29.03 13.84-46.02zm-16.01 0c0 16.73-6.12 32.05-16.22 43.87-6.17-17.4-22.17-29.51-41.42-29.51h-20.07c-19.14 0-35.47 12.25-41.58 29.33-10.01-11.8-16.07-27.05-16.07-43.69 0-37.32 30.36-67.68 67.68-67.68s67.68 30.37 67.68 67.68zm-29.75 56a67.335 67.335 0 0 1-37.93 11.65c-14.09 0-27.19-4.33-38.04-11.73 1.32-14.3 13.38-25.54 28.01-25.54h20.07c14.75 0 26.16 10.76 27.89 25.62zm9.08 141.2c-.19.48-.36.6-.7.72-.47.16-.73.13-1.15-.1l-174.62-100.8c-.58-.34-.69-.68-.69-1.14V17.3c0-.38.05-.6.44-.95.37-.32.6-.39 1.04-.33 31.92 4.38 62.67 15.78 89.76 33.18-26.6 14.03-44.78 41.96-44.78 74.06 0 46.13 37.54 83.66 83.69 83.66 18.89 0 36.34-6.3 50.37-16.9.54-.33 1.04-.72 1.49-1.17a88.7 88.7 0 0 0 5.4-4.65c4.09 17.03 6.17 34.54 6.17 52.24 0 29.09-5.52 57.35-16.42 84.01zm-47.01-183.26c18.58 0 33.69-15.1 33.69-33.66 0-18.58-15.11-33.69-33.69-33.69s-33.69 15.11-33.69 33.69c0 18.56 15.12 33.66 33.69 33.66zm0-51.34c9.75 0 17.67 7.93 17.67 17.67 0 9.73-7.93 17.65-17.67 17.65-9.75 0-17.67-7.92-17.67-17.65 0-9.74 7.93-17.67 17.67-17.67zM96.92 137.19c18.58 0 33.69-15.1 33.69-33.66 0-18.58-15.11-33.69-33.69-33.69-18.56 0-33.66 15.11-33.66 33.69 0 18.56 15.1 33.66 33.66 33.66zm0-51.34c9.75 0 17.67 7.93 17.67 17.67 0 9.73-7.93 17.65-17.67 17.65-9.73 0-17.65-7.92-17.65-17.65 0-9.74 7.92-17.67 17.65-17.67zM256 374.93c-18.58 0-33.69 15.1-33.69 33.66 0 18.58 15.11 33.69 33.69 33.69 18.56 0 33.66-15.11 33.66-33.69 0-18.56-15.1-33.66-33.66-33.66zm0 51.33c-9.75 0-17.67-7.93-17.67-17.67 0-9.73 7.93-17.65 17.67-17.65 9.73 0 17.65 7.92 17.65 17.65 0 9.75-7.92 17.67-17.65 17.67z" fill="#0261df" opacity="1" data-original="#000000" class=""></path></g></svg>