<svg xmlns="http://www.w3.org/2000/svg" version="1.1" xmlns:xlink="http://www.w3.org/1999/xlink" width="512" height="512" x="0" y="0" viewBox="0 0 512 512" style="enable-background:new 0 0 512 512" xml:space="preserve"><g><path d="M192 48h128v16H192zM136 88v160a8 8 0 0 0 8 8h224a8 8 0 0 0 8-8V88a8 8 0 0 0-8-8H144a8 8 0 0 0-8 8Zm16 40h128v112H152Zm144 112V128h64v112Zm64-128h-64V96h64Zm-80-16v16H152V96Z" fill="#0261df" opacity="1" data-original="#000000"></path><path d="M168 144h88v16h-88zM168 176h56v16h-56zM312 144h32v16h-32zM312 176h32v16h-32zM168 208h72v16h-72zM312 208h32v16h-32z" fill="#0261df" opacity="1" data-original="#000000"></path><path d="M456 16H120a40.046 40.046 0 0 0-40 40v224h16V56a24.027 24.027 0 0 1 24-24h304.022A39.79 39.79 0 0 0 416 56v200h16V80h56a8 8 0 0 0 8-8V56a40.046 40.046 0 0 0-40-40Zm24 48h-48v-8a24 24 0 0 1 48 0ZM489.735 280.19l-10.078-2.239a258.819 258.819 0 0 0-126.846 3.782l-24.833 7.096a243.195 243.195 0 0 1-156.355-7.996l-.648-.26A8 8 0 0 0 160 288v23.423C145.644 301.925 122.758 296 96 296c-45.607 0-80 17.196-80 40 0 7.376 3.616 14.16 10.029 19.97C19.499 361.893 16 368.769 16 376c0 7.376 3.616 14.16 10.029 19.97C19.499 401.893 16 408.769 16 416c0 7.376 3.616 14.16 10.029 19.97C19.499 441.893 16 448.769 16 456c0 22.804 34.393 40 80 40 28.803 0 53.12-6.863 67.14-17.662a7.979 7.979 0 0 0 1.885 1.089l.652.26a259.257 259.257 0 0 0 166.697 8.527l24.833-7.096a242.735 242.735 0 0 1 118.979-3.548l10.079 2.24A8 8 0 0 0 496 472V288a8 8 0 0 0-6.265-7.81ZM48.337 320.684C60.936 315.084 77.863 312 96 312c39.068 0 64 14.215 64 24 0 4.969-6.26 10.838-16.337 15.316C131.064 356.916 114.137 360 96 360c-39.068 0-64-14.215-64-24 0-4.969 6.26-10.838 16.337-15.316ZM96 376c22.15 0 41.637-4.064 55.841-10.849C157.071 368.71 160 372.553 160 376c0 4.969-6.26 10.838-16.337 15.316C131.064 396.916 114.137 400 96 400c-39.068 0-64-14.215-64-24 0-3.447 2.929-7.29 8.159-10.849C54.363 371.936 73.85 376 96 376Zm0 40c22.15 0 41.637-4.064 55.841-10.849C157.071 408.71 160 412.553 160 416c0 4.969-6.26 10.838-16.337 15.316C131.064 436.916 114.137 440 96 440c-39.068 0-64-14.215-64-24 0-3.447 2.929-7.29 8.159-10.849C54.363 411.936 73.85 416 96 416Zm47.663 55.316C131.064 476.916 114.137 480 96 480c-39.068 0-64-14.215-64-24 0-3.447 2.929-7.29 8.159-10.849C54.363 451.936 73.85 456 96 456s41.637-4.064 55.841-10.849C157.071 448.71 160 452.553 160 456c0 4.969-6.26 10.838-16.337 15.316ZM480 462.027l-.343-.076a258.807 258.807 0 0 0-126.846 3.782l-24.833 7.096A243.273 243.273 0 0 1 176 466.534V299.56a259.457 259.457 0 0 0 156.374 4.655l24.833-7.096a242.746 242.746 0 0 1 118.979-3.548l3.814.848Z" fill="#0261df" opacity="1" data-original="#000000"></path><path d="m217.455 390.293-2.91 15.732a259.084 259.084 0 0 0 33.023 3.932l.864-15.976a243.085 243.085 0 0 1-30.977-3.688ZM439.479 384.516l1.043-15.967a259.123 259.123 0 0 0-33.024-.04l1.004 15.969a242.502 242.502 0 0 1 30.977.038ZM195.088 324.338a8 8 0 0 0-3.088 6.314V376h16v-35.274a258.396 258.396 0 0 0 47.824 5.545l.352-15.997a242.378 242.378 0 0 1-54.208-7.376 8.005 8.005 0 0 0-6.88 1.44ZM457.034 306.164a258.485 258.485 0 0 0-57.792-1.003l1.516 15.928a242.338 242.338 0 0 1 47.242.136V352h16v-37.903a8 8 0 0 0-6.966-7.933ZM448 425.148a258.515 258.515 0 0 0-48.758.013l1.516 15.928a242.307 242.307 0 0 1 54.208.94 7.999 7.999 0 0 0 9.034-7.932V392h-16ZM208 416h-16v34.652a8 8 0 0 0 6.032 7.754 258.35 258.35 0 0 0 57.792 7.865l.352-15.997A242.385 242.385 0 0 1 208 444.347ZM328 328a64 64 0 1 0 64 64 64.072 64.072 0 0 0-64-64Zm0 112a48 48 0 1 1 48-48 48.054 48.054 0 0 1-48 48Z" fill="#0261df" opacity="1" data-original="#000000"></path><path d="m304.845 420.422 32-64 14.31 7.156-32 64zM304 360h16v16h-16zM336 408h16v16h-16z" fill="#0261df" opacity="1" data-original="#000000"></path></g></svg>