<svg xmlns="http://www.w3.org/2000/svg" version="1.1" xmlns:xlink="http://www.w3.org/1999/xlink" width="512" height="512" x="0" y="0" viewBox="0 0 64 64" style="enable-background:new 0 0 512 512" xml:space="preserve" class=""><g><path d="M57 2H15a5.006 5.006 0 0 0-5 5v7.059a9 9 0 0 0-.968 17.718l-6.587 4.391A1 1 0 0 0 3 38h3v13a1 1 0 0 0 1 1h16a1 1 0 0 0 1-1V41a1 1 0 0 0-2 0v9h-3v-5a3 3 0 0 0-3-3h-2a3 3 0 0 0-3 3v5H8V38h19a1 1 0 0 0 .555-1.832l-10.216-6.811A8.973 8.973 0 0 0 12 14.059V7a3 3 0 0 1 3-3h38a4.98 4.98 0 0 0-1 3v11.392a1 1 0 0 0 2 0V12h7a1 1 0 0 0 1-1V7a5.006 5.006 0 0 0-5-5ZM13 45a1 1 0 0 1 1-1h2a1 1 0 0 1 1 1v5h-4Zm-6.7-9 8.7-5.8 8.7 5.8ZM18 23a7.016 7.016 0 0 1-2.363 5.223l-.082-.055a1 1 0 0 0-1.11 0l-2.665 1.777A6.649 6.649 0 0 1 11 30a7 7 0 1 1 7-7Zm42-13h-6V7a3 3 0 0 1 6 0Z" fill="#0261df" opacity="1" data-original="#000000" class=""></path><path d="M23 17a1 1 0 0 0-1 1v7a3 3 0 0 0 3 3h14a3 3 0 0 0 3-3V9a3 3 0 0 0-3-3H25a3 3 0 0 0-3 3v5a1 1 0 0 0 2 0V9a1 1 0 0 1 1-1h14a1 1 0 0 1 1 1v16a1 1 0 0 1-1 1h-1a4 4 0 0 0-2.335-3.625A4.969 4.969 0 0 0 37 19v-4a5.006 5.006 0 0 0-5-5h-4a1 1 0 0 0-1 1v8a4.969 4.969 0 0 0 1.335 3.375A4 4 0 0 0 26 26h-1a1 1 0 0 1-1-1v-7a1 1 0 0 0-1-1Zm6 .882a4.2 4.2 0 0 0 2.229-1.373A7.76 7.76 0 0 0 35 17.957V19a3 3 0 0 1-6 0ZM32 12a3 3 0 0 1 3 3v.935a5.785 5.785 0 0 1-3.293-1.642 1 1 0 0 0-1.6.26l-.107.211a2.214 2.214 0 0 1-1 .982V12Zm-2 12h4a2 2 0 0 1 2 2h-8a2 2 0 0 1 2-2ZM60.5 17.4a3.006 3.006 0 0 0-4.1 1.1l-1.5 2.6a1 1 0 0 0-1.366.366l-1.5 2.6-.866-.5a3 3 0 0 0-4.1 1.1l-4 6.928a1 1 0 0 0 1.733 1l4-6.928a1 1 0 0 1 1.365-.366l.866.5-3.013 5.218a1 1 0 0 0 1.733 1l3.016-5.218 3.463 2-9 15.588-3.465-2 3.988-6.906a1 1 0 0 0-1.733-1l-4.487 7.772a1.015 1.015 0 0 0-.132.44l-.202 3.461a2.583 2.583 0 0 0 .55 1.732l-.367.635-.676.094a6.572 6.572 0 0 1-2.451-.124A2.382 2.382 0 0 0 37.146 44h-.764A2.384 2.384 0 0 0 34 46.382v.878a2.389 2.389 0 0 0 .224 1.01l-.579.29a.383.383 0 0 1-.49-.13l-.555-.83a2.383 2.383 0 0 0-3.3-.66l-.546.365a.392.392 0 0 1-.311.051.379.379 0 0 1-.244-.2l-.3-.6a1 1 0 1 0-1.79.894l.3.6a2.384 2.384 0 0 0 3.453.917l.547-.365a.382.382 0 0 1 .53.106l.556.835a2.387 2.387 0 0 0 3.048.809l1.3-.648a8.529 8.529 0 0 0 3.966.977 8.644 8.644 0 0 0 1.177-.081l1.16-.161a1 1 0 0 0 .729-.491l.61-1.056a2.7 2.7 0 0 0 .334.044 2.609 2.609 0 0 0 1.441-.436l2.9-1.914a1 1 0 0 0 .316-.334L52 40.124V57a3 3 0 0 1-6 0v-2a1 1 0 0 0-1-1H3a1 1 0 0 0-1 1v2a5.006 5.006 0 0 0 5 5h19a1 1 0 0 0 0-2H7a3 3 0 0 1-3-3v-1h40v1a4.98 4.98 0 0 0 1 3H30a1 1 0 0 0 0 2h19a5.006 5.006 0 0 0 5-5V36.66l3.964-6.86.866.5a1 1 0 1 0 1-1.732l-.866-.5 1.5-2.6A1 1 0 0 0 60.1 24.1l1.5-2.6a3 3 0 0 0-1.1-4.1ZM37.508 46.5a.378.378 0 0 1-.191.221l-1.3.65A.4.4 0 0 1 36 47.26v-.878a.382.382 0 0 1 .382-.382h.764a.382.382 0 0 1 .362.5Zm6.641.325a.619.619 0 0 1-.958-.553l.111-1.851 2.398 1.385ZM58.134 19.5a1 1 0 0 1 1.732 1l-1.5 2.6-1.732-1Zm-4.366 5.563 1-1.732 3.463 2-1 1.732Z" fill="#0261df" opacity="1" data-original="#000000" class=""></path><path d="M25 32h15a1 1 0 0 0 0-2H25a1 1 0 0 0 0 2ZM30 39a1 1 0 0 0 1 1h9a1 1 0 0 0 0-2h-9a1 1 0 0 0-1 1ZM39 36a1 1 0 0 0 0-2h-7a1 1 0 0 0 0 2ZM10 18v.184A2.993 2.993 0 0 0 11 24a1 1 0 1 1-1 1 1 1 0 0 0-2 0 3 3 0 0 0 2 2.816V28a1 1 0 0 0 2 0v-.184A2.993 2.993 0 0 0 11 22a1 1 0 1 1 1-1 1 1 0 0 0 2 0 3 3 0 0 0-2-2.816V18a1 1 0 0 0-2 0Z" fill="#0261df" opacity="1" data-original="#000000" class=""></path></g></svg>