<svg xmlns="http://www.w3.org/2000/svg" version="1.1" xmlns:xlink="http://www.w3.org/1999/xlink" width="512" height="512" x="0" y="0" viewBox="0 0 64 64" style="enable-background:new 0 0 512 512" xml:space="preserve" class=""><g><path d="M30.002 8h-14a1 1 0 1 1 0-2h14a1 1 0 1 1 0 2z" fill="#0261df" opacity="1" data-original="#000000" class=""></path><path d="M30.002 15a1 1 0 0 1-1-1V7a1 1 0 1 1 2 0v7a1 1 0 0 1-1 1zM16.002 15a1 1 0 0 1-1-1V7a1 1 0 1 1 2 0v7a1 1 0 0 1-1 1z" fill="#0261df" opacity="1" data-original="#000000" class=""></path><path d="M36.002 15h-26a1 1 0 1 1 0-2h26a1 1 0 1 1 0 2z" fill="#0261df" opacity="1" data-original="#000000" class=""></path><path d="M36.002 20.999a1 1 0 0 1-1-1V14a1 1 0 1 1 2 0v5.999a1 1 0 0 1-1 1zM10.002 64a1 1 0 0 1-1-1V14a1 1 0 1 1 2 0v49a1 1 0 0 1-1 1zM23.002 8a1 1 0 0 1-1-1V1a1 1 0 1 1 2 0v6a1 1 0 0 1-1 1z" fill="#0261df" opacity="1" data-original="#000000" class=""></path><path d="M43.002 64h-40a1 1 0 1 1 0-2h40a1 1 0 1 1 0 2z" fill="#0261df" opacity="1" data-original="#000000" class=""></path><path d="M5.002 64a1 1 0 0 1-1-1v-4a1 1 0 1 1 2 0v4a1 1 0 0 1-1 1z" fill="#0261df" opacity="1" data-original="#000000" class=""></path><path d="M5.002 60c-1.654 0-3-1.346-3-3s1.346-3 3-3 3 1.346 3 3-1.346 3-3 3zm0-4a1 1 0 1 0 0 2 1 1 0 0 0 0-2zM17.002 59a1 1 0 0 1-1-1V20.002a1 1 0 1 1 2 0V58a1 1 0 0 1-1 1zM23.002 56a1 1 0 0 1-1-1V20.002a1 1 0 1 1 2 0V55a1 1 0 0 1-1 1zM29.004 59a1 1 0 0 1-1-1V20.002a1 1 0 1 1 2 0V58a1 1 0 0 1-1 1zM23.002 64a1 1 0 0 1-1-1v-3a1 1 0 1 1 2 0v3a1 1 0 0 1-1 1zM23.002 15a1 1 0 0 1-1-1v-3a1 1 0 1 1 2 0v3a1 1 0 0 1-1 1z" fill="#0261df" opacity="1" data-original="#000000" class=""></path><path d="M60.998 63.998h-32a1 1 0 0 1-1-1V19.999a1 1 0 0 1 1-1h32a1 1 0 0 1 1 1v42.999a1 1 0 0 1-1 1zm-31-2h30V20.999h-30z" fill="#0261df" opacity="1" data-original="#000000" class=""></path><path d="M39.997 24.999a1 1 0 0 1-.969-.758l-1-4a.998.998 0 0 1 .728-1.212.997.997 0 0 1 1.212.728l1 4a.998.998 0 0 1-.971 1.242z" fill="#0261df" opacity="1" data-original="#000000" class=""></path><path d="M49.998 24.999h-10a1 1 0 1 1 0-2h10a1 1 0 1 1 0 2z" fill="#0261df" opacity="1" data-original="#000000" class=""></path><path d="M49.999 24.999a1 1 0 0 1-.971-1.242l1-4a1 1 0 0 1 1.94.484l-1 4a1 1 0 0 1-.969.758zM39.748 23.999h-7.75a1 1 0 1 1 0-2h7.75a1 1 0 1 1 0 2z" fill="#0261df" opacity="1" data-original="#000000" class=""></path><path d="M57.998 23.999h-7.75a1 1 0 1 1 0-2h7.75a1 1 0 1 1 0 2z" fill="#0261df" opacity="1" data-original="#000000" class=""></path><path d="M57.998 60.998a1 1 0 0 1-1-1V22.999a1 1 0 1 1 2 0v36.999a1 1 0 0 1-1 1z" fill="#0261df" opacity="1" data-original="#000000" class=""></path><path d="M57.998 60.998h-26a1 1 0 1 1 0-2h26a1 1 0 1 1 0 2z" fill="#0261df" opacity="1" data-original="#000000" class=""></path><path d="M31.998 60.998a1 1 0 0 1-1-1V22.999a1 1 0 1 1 2 0v36.999a1 1 0 0 1-1 1zM37.998 35.999a.997.997 0 0 1-.707-.293l-1-1a.999.999 0 1 1 1.414-1.414l1 1a.999.999 0 0 1-.707 1.707z" fill="#0261df" opacity="1" data-original="#000000" class=""></path><path d="M37.998 35.999a.999.999 0 0 1-.707-1.707l3-3a.999.999 0 1 1 1.414 1.414l-3 3a.997.997 0 0 1-.707.293zM52.998 32.999h-8a1 1 0 1 1 0-2h8a1 1 0 1 1 0 2zM47.998 35.999h-2.906a1 1 0 1 1 0-2h2.906a1 1 0 1 1 0 2zM37.998 44.999a.997.997 0 0 1-.707-.293l-1-1a.999.999 0 1 1 1.414-1.414l1 1a.999.999 0 0 1-.707 1.707z" fill="#0261df" opacity="1" data-original="#000000" class=""></path><path d="M37.998 44.999a.999.999 0 0 1-.707-1.707l3-3a.999.999 0 1 1 1.414 1.414l-3 3a.997.997 0 0 1-.707.293zM52.998 41.999h-8a1 1 0 1 1 0-2h8a1 1 0 1 1 0 2zM47.998 44.999h-2.906a1 1 0 1 1 0-2h2.906a1 1 0 1 1 0 2zM37.998 53.999a.997.997 0 0 1-.707-.293l-1-1a.999.999 0 1 1 1.414-1.414l1 1a.999.999 0 0 1-.707 1.707z" fill="#0261df" opacity="1" data-original="#000000" class=""></path><path d="M37.998 53.999a.999.999 0 0 1-.707-1.707l3-3a.999.999 0 1 1 1.414 1.414l-3 3a.997.997 0 0 1-.707.293zM52.998 50.999h-8a1 1 0 1 1 0-2h8a1 1 0 1 1 0 2zM47.998 53.999h-2.906a1 1 0 1 1 0-2h2.906a1 1 0 1 1 0 2z" fill="#0261df" opacity="1" data-original="#000000" class=""></path></g></svg>